# xmcd
#
# Track frame offsets:
#	150
#	15651
#	31576
#	44911
#	65496
#	79501
#	92465
#	106296
#	121288
#	136144
#	152895
#	164082
#	177092
#	191385
#
# Disc length: 2738 seconds
#
# Revision: 1
# Processed by: cddbd v1.5.2PL0 Copyright (c) Steve Scherf et al.
# Submitted via: audiograbber 1.83.01
#
DISCID=ad0ab00e
DTITLE=Cajun Roosters - from the swamps and bayous of Louisiana
DYEAR=2008
DGENRE=Cajun
TTITLE0=French Blues
TTITLE1=73 Special
TTITLE2=Rosa demain cèst pas dimanche
TTITLE3=La valse criminelle
TTITLE4=Mardi Gras
TTITLE5=Bonsoir Moreau
TTITLE6=Lacassine special
TTITLE7=Ma vieux wagon
TTITLE8=Servive du blues militaire
TTITLE9=Grande nuit special
TTITLE10=1755
TTITLE11=Danse de la misère
TTITLE12=Deralde Waltz
TTITLE13=Donnez-moi mon chapeau
EXTD=
EXTT0=
EXTT1=
EXTT2=
EXTT3=
EXTT4=
EXTT5=
EXTT6=
EXTT7=
EXTT8=
EXTT9=
EXTT10=
EXTT11=
EXTT12=
EXTT13=
PLAYORDER=
